<svg width="168" height="49" viewBox="0 0 168 49" fill="none" xmlns="http://www.w3.org/2000/svg">
<path d="M30.0896 22.8223C30.0185 23.5653 29.9561 24.2031 29.9561 24.2031C29.5527 27.5443 26.4132 27.8838 24.3608 27.9803C22.3572 28.0752 17.0999 28.0781 16.8731 28.1122L16.8997 28.1049C15.1113 28.2383 14.0925 27.967 14.0925 27.967C14.0925 27.967 12.6229 27.571 12.4686 25.3331C12.3085 23.0107 11.9081 14.4952 11.9081 14.4952L15.3782 14.3351L15.4405 23.4926C15.4405 23.4926 15.2625 25.0528 16.8997 25.0883C16.8997 25.0883 26.3079 25.0424 26.8626 25.0023C28.8187 24.866 28.4078 24.4017 28.4078 24.4017L17.9808 24.0695L18.2611 21.1688C18.2611 21.1688 18.5919 15.8092 23.6579 16.3001C28.7237 16.7896 27.9036 21.019 27.9036 21.019L23.8299 20.8039C23.8299 20.8039 23.2767 19.8742 22.209 19.8252C20.2425 19.6339 20.0586 21.7175 20.0586 21.7175C20.0586 21.7175 28.9937 22.026 29.3866 22.0438C29.7811 22.0616 30.1623 22.0779 30.0896 22.8223Z" fill="black"/>
<path d="M45.7858 26.1102L45.3973 26.1012L45.4596 19.5747C45.4596 19.5747 45.4596 17.8172 47.2036 18.3868L47.595 28.1746L50.5493 28.0677C50.5493 28.0677 54.678 28.1746 54.5 23.7611C54.3576 18.9562 54.3219 18.6715 54.3219 18.6715L50.8696 18.7427L51.3323 25.5764C51.3323 25.5764 51.439 26.4661 50.2289 26.5729L49.9797 16.8562C49.9797 16.8562 48.307 16.2869 45.9578 16.2869C43.6087 16.2869 41.758 17.7461 41.6156 21.0205C41.5488 22.5658 41.4896 24.2771 41.4451 25.6549C41.3991 27.0978 42.5809 28.2798 44.024 28.2353L46.8298 28.1389L46.8357 26.1161L45.7858 26.1102Z" fill="#7D0B13"/>
<path d="M30.8738 19.6162C30.8738 19.6162 31.9297 19.723 35.2041 19.8653C38.4787 20.0077 39.9379 21.8585 39.9379 24.2076C39.9379 26.5568 39.3684 28.2295 39.3684 28.2295L31.7279 28.1821L30.2331 28.1525L30.1724 26.6591C30.1471 26.045 30.6247 25.529 31.2372 25.5037L37.838 25.4534C38.4074 23.7094 36.6501 23.7094 36.6501 23.7094L33.0893 23.6471L31.0488 23.6634L30.8738 19.6162Z" fill="black"/>
<path d="M5.07303 28.6313L3.9562 28.6299C3.9562 28.6299 -0.172351 28.7365 0.00559111 24.3232C0.147977 19.5183 0.183534 19.2335 0.183534 19.2335L3.63587 19.3046L3.17316 26.1384C3.17316 26.1384 3.07241 26.9763 4.17274 27.1231C4.20686 27.1275 4.83871 27.132 4.87426 27.1349H5.37541C5.41113 27.132 6.92965 27.1275 6.96232 27.1231C8.06121 26.9763 7.96191 26.1384 7.96191 26.1384L7.49919 19.3046L10.9515 19.2335C10.9515 19.2335 10.9871 19.5183 11.1295 24.3232C11.3074 28.7365 7.17886 28.6299 7.17886 28.6299L5.78191 28.6313H5.07303Z" fill="black"/>
<path d="M52.4575 16.8697C53.5796 16.8697 54.4893 15.9599 54.4893 14.8378C54.4893 13.7159 53.5796 12.8062 52.4575 12.8062C51.3354 12.8062 50.4258 13.7159 50.4258 14.8378C50.4258 15.9599 51.3354 16.8697 52.4575 16.8697Z" fill="#EDC541"/>
<path d="M111.773 17.3293C111.773 18.4519 110.863 19.361 109.742 19.361C109.059 19.361 108.457 19.0259 108.089 18.5113C107.72 19.0259 107.117 19.361 106.436 19.361C105.313 19.361 104.404 18.4519 104.404 17.3293C104.404 16.2081 105.313 15.2976 106.436 15.2976C107.117 15.2976 107.72 15.6327 108.089 16.1473C108.457 15.6327 109.059 15.2976 109.742 15.2976C110.863 15.2976 111.773 16.2081 111.773 17.3293Z" fill="black"/>
<path d="M5.56641 18.4015C6.68852 18.4015 7.59809 17.4919 7.59809 16.3698C7.59809 15.2477 6.68852 14.3381 5.56641 14.3381C4.4443 14.3381 3.53472 15.2477 3.53472 16.3698C3.53472 17.4919 4.4443 18.4015 5.56641 18.4015Z" fill="black"/>
<path d="M63.5624 16.8133C61.1599 16.7865 60.012 18.8421 59.9053 21.9118C59.7985 24.9816 61.9875 25.1151 63.5624 24.5545C63.8085 24.4744 63.8026 24.5338 63.7403 24.6346C63.4022 24.9371 62.5301 25.5422 60.8929 25.5066C59.2557 25.4711 58.9887 23.8694 58.9887 23.8694L58.9266 14.0637L55.4563 14.2239C55.4563 14.2239 55.8567 22.7393 56.0169 25.0617C56.1711 27.2981 58.0457 27.4374 58.0457 27.4374C58.0457 27.4374 59.3448 27.8378 61.1332 27.7044C65.5644 27.4374 66.7656 24.7146 66.8723 21.5381C66.9791 18.3616 65.9648 16.8398 63.5624 16.8133ZM63.2153 22.0186C62.2157 21.9444 62.3744 20.2168 62.7215 19.5761C63.0686 18.9354 64.0028 18.7753 64.2163 20.2435C64.2163 20.2435 64.7501 22.0186 63.2153 22.0186Z" fill="#7D0B13"/>
<path d="M98.7092 20.2569C98.6024 17.0804 97.4012 14.3576 92.9701 14.0906C91.1815 13.9572 89.8824 14.3576 89.8824 14.3576C89.8824 14.3576 88.0078 14.4969 87.8536 16.7333C87.6934 19.0557 87.5897 27.5711 87.5897 27.5711L91.0599 27.7313L90.8256 17.9255C90.8256 17.9255 91.0926 16.3239 92.7298 16.2883C94.367 16.2528 95.2389 16.8579 95.5771 17.1604C95.6394 17.2597 95.6453 17.3206 95.3991 17.2405C93.8242 16.6799 91.6353 16.8134 91.7421 19.8832C91.8489 22.9529 92.9966 25.0085 95.3991 24.9817C97.8016 24.955 98.816 23.4334 98.7092 20.2569ZM96.0532 21.5693C95.8396 23.0375 94.9053 22.8773 94.5582 22.2367C94.2113 21.596 94.0526 19.8683 95.0522 19.7942C96.587 19.7942 96.0532 21.5693 96.0532 21.5693Z" fill="black"/>
<path d="M85.8176 20.5281L85.7347 23.248L85.7065 24.1408L85.702 24.3098C85.702 24.3098 85.6278 27.2832 81.0008 27.5472C80.7087 27.5739 80.4255 27.5902 80.1616 27.6021C78.1579 27.6955 72.8978 27.7 72.6723 27.7341L72.699 27.7267C70.9105 27.8601 69.8917 27.5888 69.8917 27.5888C69.8917 27.5888 68.422 27.1927 68.2678 24.9549C68.1076 22.6325 67.7072 14.1171 67.7072 14.1171L71.1775 13.9569L71.2398 23.1145C71.2398 23.1145 71.0619 24.6746 72.699 24.7102C72.699 24.7102 78.2262 24.682 81.0572 24.6523C81.0572 24.6509 81.0572 24.6509 81.0572 24.6509C81.0572 24.6509 82.2585 24.7042 82.2051 23.4764C82.1518 22.2484 81.9381 20.5281 81.9381 20.5281H85.8176Z" fill="#7D0B13"/>
<path d="M111.726 23.3962C111.818 23.7003 111.747 23.9731 111.747 23.9731C111.733 24.0814 111.717 24.1867 111.698 24.2889L111.693 24.4581C111.693 24.4581 111.619 27.4315 106.992 27.6955C106.7 27.7222 106.417 27.7386 106.153 27.7504L104.814 27.7355C103.025 27.8689 101.815 27.5886 101.815 27.5886C101.815 27.5886 100.345 27.1927 100.191 24.9549C100.031 22.6325 99.6305 14.1171 99.6305 14.1171L103.101 13.9569L103.163 23.1145C103.163 23.1145 102.985 24.6746 104.622 24.7102C104.622 24.7102 106.139 24.7547 107.329 24.7725C107.68 24.7057 108.233 24.467 108.196 23.6246C108.143 22.3968 107.929 20.6764 107.929 20.6764H111.809L111.726 23.3962Z" fill="black"/>
<path d="M165.212 32.9941C165.212 36.6789 162.215 39.6756 158.531 39.6756H151.766V38.5276C151.766 35.259 149.399 32.5324 146.286 31.9763V31.1455C146.286 30.8345 146.41 30.5487 146.625 30.3603C146.724 30.2737 146.936 30.1324 147.227 30.1701C148.296 30.3146 150.354 30.6413 152.113 31.2147C153.145 31.5507 154.259 31.2523 155.015 30.434L155.306 30.1199C156.022 29.3455 156.289 28.2602 156.021 27.2158C155.765 26.2184 155.055 25.4378 154.12 25.1268C150.872 24.0461 147.484 23.4981 144.052 23.4981C140.71 23.4981 137.407 24.018 134.236 25.0451C133.953 25.1362 133.656 25.0546 133.444 24.8252L133.096 24.4483C132.854 24.1876 132.766 23.8105 132.86 23.4446C132.901 23.2876 133.038 22.9091 133.441 22.7756C136.865 21.6399 140.437 21.0635 144.052 21.0635C148.965 21.0635 153.729 22.1112 158.212 24.1781C159.299 24.6792 160.588 24.4122 161.419 23.5137C162.087 22.7927 162.369 21.7734 162.173 20.7887C161.981 19.829 161.356 19.0217 160.5 18.6275C155.297 16.2306 149.762 15.0166 144.052 15.0166C138.546 15.0166 133.191 16.1506 128.139 18.3871C127.853 18.5144 127.531 18.4375 127.3 18.1861L127.133 18.0055C126.906 17.7605 126.813 17.404 126.885 17.0521C126.917 16.8998 127.03 16.5275 127.405 16.3611C132.689 14.0098 138.29 12.8177 144.052 12.8177C150.904 12.8177 157.464 14.4809 163.552 17.7605L163.576 17.7731C164.372 18.1987 165.305 18.1736 166.078 17.7039C166.85 17.2343 167.303 16.4145 167.287 15.5082L167.254 13.6784C167.252 11.9271 166.734 10.2371 165.754 8.79374L164.064 9.94027C164.816 11.0476 165.212 12.3434 165.212 13.6879L165.245 15.5443C165.25 15.7815 165.104 15.9072 165.016 15.9589C164.945 16.003 164.757 16.0909 164.537 15.9714L164.513 15.9589C158.127 12.5193 151.243 10.7759 144.052 10.7759C138.002 10.7759 132.122 12.0277 126.574 14.4952C125.714 14.8784 125.082 15.681 124.884 16.6422C124.68 17.6364 124.961 18.6652 125.633 19.3924L125.8 19.573C126.618 20.4573 127.891 20.7306 128.966 20.2546C133.755 18.1342 138.832 17.0584 144.052 17.0584C149.465 17.0584 154.712 18.2097 159.647 20.4824C159.914 20.6049 160.106 20.8625 160.17 21.1875C160.24 21.5332 160.145 21.8851 159.921 22.127C159.685 22.3829 159.358 22.4567 159.068 22.3232C154.315 20.1321 149.264 19.0217 144.052 19.0217C140.217 19.0217 136.43 19.6327 132.799 20.8374C131.856 21.1499 131.14 21.9337 130.883 22.9342C130.614 23.9771 130.881 25.0624 131.597 25.8352L131.946 26.2121C132.701 27.0289 133.82 27.3258 134.866 26.988C137.833 26.0267 140.924 25.5399 144.052 25.5399C147.266 25.5399 150.435 26.0535 153.475 27.065C153.869 27.1953 154.004 27.5692 154.043 27.723C154.139 28.0937 154.05 28.4707 153.808 28.733L153.517 29.0471C153.304 29.2765 153.016 29.3613 152.746 29.2733C150.833 28.6512 148.637 28.3011 147.498 28.1471C146.704 28.0387 145.895 28.2869 145.281 28.8241C144.623 29.399 144.244 30.2456 144.244 31.1455V31.9276C140.983 32.3534 138.455 35.1491 138.455 38.5276V39.6756H131.222C126.711 39.6756 123.042 36.0067 123.042 31.4958V15.1862C123.042 13.2621 123.722 11.3916 124.96 9.92144L123.398 8.60681C121.851 10.4444 121 12.7816 121 15.1862V31.4958C121 37.1327 125.585 41.7174 131.222 41.7174H138.455C138.486 45.3597 141.462 48.3142 145.109 48.3142C148.761 48.3142 151.733 45.3597 151.766 41.7174H158.531C163.342 41.7174 167.254 37.8049 167.254 32.9941V24.9116H165.212V32.9941ZM150.142 41.7174C150.109 44.4614 147.863 46.6871 145.109 46.6871C142.356 46.6871 140.112 44.4614 140.079 41.7174V38.5276C140.079 36.0491 141.882 33.982 144.244 33.5737V38.4977H146.286V33.6382C148.496 34.1674 150.142 36.1573 150.142 38.5276V41.7174Z" fill="black"/>
<path d="M150.142 38.5276V41.7175C150.109 44.4614 147.863 46.6869 145.109 46.6869C142.356 46.6869 140.111 44.4614 140.078 41.7175V38.5276C140.078 36.049 141.882 33.982 144.244 33.5737V38.4977H146.286V33.6382C148.497 34.1674 150.142 36.1574 150.142 38.5276Z" fill="#EDC541"/>
<path d="M137.093 5.16711C137.058 5.3839 137.003 5.58966 136.928 5.78592C135.934 8.42145 131.521 9.3953 131.17 9.46756L131.132 9.47061C128.193 9.80834 126.232 9.34034 125.203 8.04301C124.966 7.74769 124.776 7.40995 124.639 7.02829C125.489 6.84305 126.338 6.6702 127.196 6.50854C128.649 6.23357 130.111 5.98863 131.576 5.78592C133.409 5.5252 135.25 5.31791 137.093 5.16711Z" fill="#7D0B13"/>
<path d="M165.198 7.03304C164.987 7.46339 164.692 7.81825 164.337 8.11052C162.361 9.74236 158.59 9.43923 158.26 9.4109L158.226 9.40462C155.007 8.81245 153.225 7.62199 152.826 5.78745C152.82 5.75301 152.812 5.72146 152.809 5.68702C152.774 5.51892 152.757 5.34607 152.747 5.17017C152.82 5.17644 152.889 5.18119 152.961 5.19069C154.715 5.33522 156.474 5.5347 158.223 5.78592C159.509 5.96505 160.794 6.17081 162.074 6.40473C163.12 6.59794 164.161 6.80522 165.198 7.03304Z" fill="#7D0B13"/>
<path d="M138.693 0.191284C138.256 1.39582 137.832 2.61308 137.433 3.82254C137.413 3.88853 137.389 3.95299 137.368 4.0188C136.816 4.06291 136.266 4.11159 135.712 4.16333C132.243 4.498 128.774 5.02097 125.36 5.72935C125.239 5.7497 125.115 5.77803 124.995 5.80161C125.057 5.72307 125.123 5.643 125.192 5.56752C126.376 4.11159 127.622 2.67279 128.905 1.2859C132.132 0.761408 135.423 0.393822 138.693 0.191284Z" fill="#EDC541"/>
<path d="M164.964 5.83454C164.637 5.76551 164.313 5.6963 163.986 5.63506C160.721 4.97062 157.407 4.47904 154.09 4.16183C153.766 4.13045 153.44 4.10059 153.113 4.07549C153.009 4.06124 152.903 4.05496 152.8 4.04716C152.786 3.98117 152.772 3.91689 152.76 3.8509C152.76 3.8509 152.76 3.8509 152.76 3.84768C152.505 2.65094 152.24 1.44148 151.962 0.247803C155.131 0.475445 158.315 0.85711 161.439 1.3833C162.598 2.75611 163.721 4.16811 164.791 5.59893C164.847 5.679 164.905 5.75601 164.964 5.83454Z" fill="#EDC541"/>
<path d="M151.832 3.97341C151.728 3.96713 151.621 3.95933 151.519 3.95305C151.508 3.94983 151.502 3.94983 151.491 3.94983C147.18 3.6545 142.812 3.64975 138.5 3.93575L138.573 3.73932L139.853 0.126889L140.046 0.115862C143.57 -0.0522403 147.139 -0.0395188 150.666 0.167768C150.773 0.170822 150.883 0.178795 150.99 0.185071C151.268 1.37248 151.536 2.58024 151.793 3.77697C151.803 3.84143 151.818 3.90742 151.832 3.97341Z" fill="#7D0B13"/>
<path d="M151.624 5.08377C151.575 5.23458 151.517 5.37587 151.448 5.51412C151.404 5.60691 151.353 5.69953 151.298 5.78587C149.838 8.13252 145.478 8.41512 145.123 8.43243H144.874C141.707 8.30843 139.543 7.44128 138.834 5.78587C138.731 5.54873 138.655 5.29428 138.6 5.02576C142.703 4.77132 147.321 4.78845 151.426 5.06969C151.491 5.07444 151.56 5.08072 151.624 5.08377Z" fill="#EDC541"/>
</svg>
